<!DOCTYPE svg PUBLIC "-//W3C//DTD SVG 1.1//EN" "http://www.w3.org/Graphics/SVG/1.1/DTD/svg11.dtd">
<!-- Uploaded to: SVG Repo, www.svgrepo.com, Transformed by: SVG Repo Mixer Tools -->
<svg fill="#ffffff" height="800px" width="800px" version="1.1" id="Layer_1" xmlns="http://www.w3.org/2000/svg" xmlns:xlink="http://www.w3.org/1999/xlink" viewBox="-133.12 -133.12 778.24 778.24" xml:space="preserve" stroke="#ffffff">
<g id="SVGRepo_bgCarrier" stroke-width="0">
<rect x="-133.12" y="-133.12" width="778.24" height="778.24" rx="389.12" fill="#bdf0f0" strokewidth="0"/>
</g>
<g id="SVGRepo_tracerCarrier" stroke-linecap="round" stroke-linejoin="round"/>
<g id="SVGRepo_iconCarrier"> <g> <g> <g> <path d="M362.677,384c5.888,0,10.667-4.779,10.667-10.667V352c0-5.888-4.779-10.667-10.667-10.667s-10.667,4.779-10.667,10.667 v21.333C352.011,379.221,356.789,384,362.677,384z"/> <path d="M149.344,341.333c-5.888,0-10.667,4.779-10.667,10.667v21.333c0,5.888,4.779,10.667,10.667,10.667 s10.667-4.779,10.667-10.667V352C160.011,346.112,155.232,341.333,149.344,341.333z"/> <path d="M483.637,336.576l-73.131-36.587h-0.021l-0.384-0.192c-0.171-0.085-0.363-0.043-0.533-0.107 c-0.875-0.384-1.749-0.768-2.731-0.917c-0.171-0.021-4.651-0.64-12.16-1.557v-51.883c0-72.853-56.512-132.651-128-138.133V62.037 c12.395-4.416,21.333-16.149,21.333-30.037c0-17.643-14.336-32-32-32c-17.643,0-32,14.357-32,32 c0,13.888,8.939,25.621,21.333,30.037V107.2c-71.488,5.483-128,65.259-128,138.133v51.883 c-7.488,0.917-11.968,1.515-12.139,1.557c-0.939,0.128-1.771,0.512-2.603,0.853c-0.213,0.085-0.469,0.043-0.683,0.149 l-73.536,36.779c-10.923,5.44-17.707,16.427-17.707,28.629v136.149c0,5.888,4.779,10.667,10.667,10.667h469.333 c5.888,0,10.667-4.779,10.645-10.645V365.205C501.344,353.003,494.56,342.016,483.637,336.576z M96.011,490.667h-64V365.184 c0-4.075,2.24-7.723,5.888-9.536l58.112-29.056V490.667z M256.011,21.333c5.888,0,10.667,4.8,10.667,10.667 s-4.779,10.667-10.667,10.667s-10.667-4.8-10.667-10.667S250.123,21.333,256.011,21.333z M256.011,128 c60.373,0,110.251,45.824,116.651,104.533c-20.501-3.2-62.763-8.533-116.651-8.533c-53.44,0-96.043,5.376-116.651,8.555 C145.781,173.845,195.616,128,256.011,128z M138.677,254.315c17.813-2.88,61.931-8.96,117.333-8.96 c55.957,0,99.669,6.059,117.333,8.96v40.491C344.16,291.712,299.829,288,256.011,288c-43.435,0-88,3.755-117.333,6.827V254.315z M288.011,490.667h-64v-53.333c0-17.643,14.357-32,32-32s32,14.357,32,32V490.667z M394.677,490.667h-85.333v-53.333 c0-29.419-23.936-53.333-53.333-53.333s-53.333,23.915-53.333,53.333v53.333h-85.333V318.699 c22.293-2.752,81.621-9.365,138.667-9.365c57.643,0,116.501,6.592,138.667,9.344V490.667z M480.011,490.667h-64V326.592 l58.112,29.056c3.648,1.813,5.888,5.461,5.888,9.536V490.667z"/> <path d="M64.011,405.333c5.888,0,10.667-4.779,10.667-10.667v-21.333c0-5.888-4.779-10.667-10.667-10.667 s-10.667,4.779-10.667,10.667v21.333C53.344,400.555,58.123,405.333,64.011,405.333z"/> <path d="M298.677,373.333c5.888,0,10.667-4.779,10.667-10.667V352c0-5.888-4.779-10.667-10.667-10.667 s-10.667,4.779-10.667,10.667v10.667C288.011,368.555,292.789,373.333,298.677,373.333z"/> <path d="M448.011,362.667c-5.888,0-10.667,4.779-10.667,10.667v21.333c0,5.888,4.779,10.667,10.667,10.667 c5.888,0,10.667-4.779,10.667-10.667v-21.333C458.677,367.445,453.899,362.667,448.011,362.667z"/> <path d="M213.344,341.333c-5.888,0-10.667,4.779-10.667,10.667v10.667c0,5.888,4.779,10.667,10.667,10.667 s10.667-4.779,10.667-10.667V352C224.011,346.112,219.232,341.333,213.344,341.333z"/> </g> </g> </g> </g>
</svg>