<svg id="visual" viewBox="0 0 900 675" width="900" height="675" xmlns="http://www.w3.org/2000/svg" xmlns:xlink="http://www.w3.org/1999/xlink" version="1.1"><rect x="0" y="0" width="900" height="675" fill="#d7fffb"></rect><defs><linearGradient id="grad1_0" x1="25%" y1="0%" x2="100%" y2="100%"><stop offset="23.333333333333336%" stop-color="#d7fffb" stop-opacity="1"></stop><stop offset="76.66666666666666%" stop-color="#d7fffb" stop-opacity="1"></stop></linearGradient></defs><defs><linearGradient id="grad2_0" x1="0%" y1="0%" x2="75%" y2="100%"><stop offset="23.333333333333336%" stop-color="#d7fffb" stop-opacity="1"></stop><stop offset="76.66666666666666%" stop-color="#d7fffb" stop-opacity="1"></stop></linearGradient></defs><g transform="translate(900, 0)"><path d="M0 506.3C-63.5 488.2 -127 470.1 -183.7 443.5C-240.4 416.8 -290.2 381.5 -340.1 340.1C-390 298.8 -440 251.4 -467.7 193.7C-495.4 136 -500.8 68 -506.2 0L0 0Z" fill="#71DFE7"></path></g><g transform="translate(0, 675)"><path d="M0 -506.2C68.4 -501 136.7 -495.8 193.7 -467.7C250.8 -439.6 296.5 -388.7 339.4 -339.4C382.4 -290.2 422.6 -242.6 449.9 -186.4C477.3 -130.1 491.8 -65 506.3 0L0 0Z" fill="#71DFE7"></path></g></svg>