<svg id="visual" viewBox="0 0 900 675" width="900" height="675" xmlns="http://www.w3.org/2000/svg" xmlns:xlink="http://www.w3.org/1999/xlink" version="1.1"><rect x="0" y="0" width="900" height="675" fill="#d7fffb"></rect><defs><linearGradient id="grad1_0" x1="25%" y1="0%" x2="100%" y2="100%"><stop offset="23.333333333333336%" stop-color="#d7fffb" stop-opacity="1"></stop><stop offset="76.66666666666666%" stop-color="#d7fffb" stop-opacity="1"></stop></linearGradient></defs><defs><linearGradient id="grad2_0" x1="0%" y1="0%" x2="75%" y2="100%"><stop offset="23.333333333333336%" stop-color="#d7fffb" stop-opacity="1"></stop><stop offset="76.66666666666666%" stop-color="#d7fffb" stop-opacity="1"></stop></linearGradient></defs><g transform="translate(900, 0)"><path d="M0 562.5C-93.9 541.1 -187.9 519.6 -274.5 475.4C-361.1 431.3 -440.4 364.3 -487.1 281.3C-533.9 198.2 -548.2 99.1 -562.5 0L0 0Z" fill="#71DFE7"></path></g><g transform="translate(0, 675)"><path d="M0 -562.5C98.3 -547.7 196.6 -533 281.2 -487.1C365.9 -441.3 436.9 -364.4 481.5 -278C526.1 -191.6 544.3 -95.8 562.5 0L0 0Z" fill="#71DFE7"></path></g></svg>